<svg width="60" height="60" viewBox="0 0 60 60" fill="none" xmlns="http://www.w3.org/2000/svg">
<circle cx="30" cy="30" r="30" fill="url(#paint0_linear)"/>
<path d="M38.0649 12H21.9344C16.4566 12 12 16.4568 12 21.9346V38.0651C12 43.5432 16.4566 47.9998 21.9344 47.9998H38.0649C43.5432 47.9998 47.9998 43.543 47.9998 38.0651V21.9346C48 16.4568 43.5432 12 38.0649 12ZM44.8059 38.0651C44.8059 41.782 41.782 44.8057 38.0651 44.8057H21.9344C18.2178 44.8059 15.1941 41.782 15.1941 38.0651V21.9346C15.1941 18.218 18.2178 15.1941 21.9344 15.1941H38.0649C41.7818 15.1941 44.8057 18.218 44.8057 21.9346V38.0651H44.8059Z" fill="white"/>
<path d="M29.9999 20.7236C24.8849 20.7236 20.7236 24.8849 20.7236 29.9999C20.7236 35.1146 24.8849 39.2757 29.9999 39.2757C35.1149 39.2757 39.2761 35.1146 39.2761 29.9999C39.2761 24.8849 35.1149 20.7236 29.9999 20.7236ZM29.9999 36.0814C26.6463 36.0814 23.9177 33.3532 23.9177 29.9997C23.9177 26.6459 26.6461 23.9175 29.9999 23.9175C33.3536 23.9175 36.082 26.6459 36.082 29.9997C36.082 33.3532 33.3534 36.0814 29.9999 36.0814Z" fill="white"/>
<path d="M39.6651 18.0156C39.0497 18.0156 38.4451 18.2648 38.0105 18.7013C37.5738 19.1357 37.3228 19.7404 37.3228 20.3579C37.3228 20.9736 37.574 21.5781 38.0105 22.0146C38.4449 22.449 39.0497 22.7003 39.6651 22.7003C40.2826 22.7003 40.8852 22.449 41.3217 22.0146C41.7582 21.5781 42.0074 20.9733 42.0074 20.3579C42.0074 19.7404 41.7582 19.1357 41.3217 18.7013C40.8873 18.2648 40.2826 18.0156 39.6651 18.0156Z" fill="white"/>
<defs>
<linearGradient id="paint0_linear" x1="51" y1="8.5" x2="10" y2="53" gradientUnits="userSpaceOnUse">
<stop stop-color="#B200B8"/>
<stop offset="0.9999" stop-color="#FE3134"/>
<stop offset="1" stop-color="#FBBD45"/>
</linearGradient>
</defs>
</svg>
