<svg width="30" height="30" viewBox="0 0 30 30" fill="none" xmlns="http://www.w3.org/2000/svg">
<circle cx="15" cy="15" r="15" fill="#F78328"/>
<path d="M19.0325 6H10.9672C8.22829 6 6 8.2284 6 10.9673V19.0326C6 21.7716 8.22829 23.9999 10.9672 23.9999H19.0325C21.7716 23.9999 23.9999 21.7715 23.9999 19.0326V10.9673C24 8.2284 21.7716 6 19.0325 6ZM22.403 19.0326C22.403 20.891 20.891 22.4029 19.0326 22.4029H10.9672C9.1089 22.403 7.59704 20.891 7.59704 19.0326V10.9673C7.59704 9.10901 9.1089 7.59704 10.9672 7.59704H19.0325C20.8909 7.59704 22.4029 9.10901 22.4029 10.9673V19.0326H22.403Z" fill="white"/>
<path d="M15 10.3621C12.4425 10.3621 10.3619 12.4427 10.3619 15.0002C10.3619 17.5576 12.4425 19.6381 15 19.6381C17.5575 19.6381 19.6382 17.5576 19.6382 15.0002C19.6382 12.4427 17.5575 10.3621 15 10.3621ZM15 18.0409C13.3233 18.0409 11.959 16.6769 11.959 15.0001C11.959 13.3232 13.3232 11.959 15 11.959C16.6769 11.959 18.0411 13.3232 18.0411 15.0001C18.0411 16.6769 16.6768 18.0409 15 18.0409Z" fill="white"/>
<path d="M19.8326 9.00793C19.5249 9.00793 19.2227 9.1325 19.0053 9.35077C18.787 9.56796 18.6615 9.87033 18.6615 10.1791C18.6615 10.4869 18.7871 10.7892 19.0053 11.0074C19.2225 11.2246 19.5249 11.3503 19.8326 11.3503C20.1414 11.3503 20.4427 11.2246 20.6609 11.0074C20.8792 10.7892 21.0038 10.4868 21.0038 10.1791C21.0038 9.87033 20.8792 9.56796 20.6609 9.35077C20.4437 9.1325 20.1414 9.00793 19.8326 9.00793Z" fill="white"/>
</svg>
