<svg width="128" height="36" viewBox="0 0 128 36" fill="none" xmlns="http://www.w3.org/2000/svg">
<path d="M0 25.0001L21.1112 4L28.1482 10.9999L7.03697 32L0 25.0001Z" fill="#F78328"/>
<path d="M19.7039 25.0001L30.963 13.8002L38 20.8001L26.7408 32L19.7039 25.0001Z" fill="#F78328"/>
<path d="M49.8864 15L51.0568 11.7045H55.7614L56.9318 15H58.4091L54.1364 3.36364H52.6818L48.4091 15H49.8864ZM51.5 10.4545L53.3636 5.20455H53.4545L55.3182 10.4545H51.5ZM60.7016 15H62.1107V10.75H64.6561C67.3664 10.75 68.588 9.10227 68.588 7.04545C68.588 4.98864 67.3664 3.36364 64.6334 3.36364H60.7016V15ZM62.1107 9.5V4.61364H64.588C66.48 4.61364 67.2016 5.64773 67.2016 7.04545C67.2016 8.44318 66.48 9.5 64.6107 9.5H62.1107ZM80.5415 7C80.1097 4.61364 78.2006 3.20455 75.8597 3.20455C72.8824 3.20455 70.7233 5.5 70.7233 9.18182C70.7233 12.8636 72.8824 15.1591 75.8597 15.1591C78.2006 15.1591 80.1097 13.75 80.5415 11.3636H79.1324C78.7915 12.9773 77.4051 13.8409 75.8597 13.8409C73.746 13.8409 72.0869 12.2045 72.0869 9.18182C72.0869 6.15909 73.746 4.52273 75.8597 4.52273C77.4051 4.52273 78.7915 5.38636 79.1324 7H80.5415ZM83.1385 15H90.2521V13.75H84.5476V9.79545H89.7976V8.54545H84.5476V4.61364H90.1612V3.36364H83.1385V15ZM93.021 15H94.4301V9.79545H100.635V15H102.044V3.36364H100.635V8.54545H94.4301V3.36364H93.021V15ZM105.662 15L106.832 11.7045H111.537L112.707 15H114.185L109.912 3.36364H108.457L104.185 15H105.662ZM107.276 10.4545L109.139 5.20455H109.23L111.094 10.4545H107.276ZM116.117 15H116.549C119.117 15 119.634 12.9091 119.776 9.25L119.958 4.61364H124.299V15H125.708V3.36364H118.617L118.413 8.97727C118.288 12.4091 117.913 13.7045 116.458 13.7045H116.117V15ZM48.4091 33H48.8409C51.4091 33 51.9261 30.9091 52.0682 27.25L52.25 22.6136H56.5909V33H58V21.3636H50.9091L50.7045 26.9773C50.5795 30.4091 50.2045 31.7045 48.75 31.7045H48.4091V33ZM60.8153 33H67.929V31.75H62.2244V27.7955H67.4744V26.5455H62.2244V22.6136H67.8381V21.3636H60.8153V33ZM80.5415 25C80.1097 22.6136 78.2006 21.2045 75.8597 21.2045C72.8824 21.2045 70.7233 23.5 70.7233 27.1818C70.7233 30.8636 72.8824 33.1591 75.8597 33.1591C78.2006 33.1591 80.1097 31.75 80.5415 29.3636H79.1324C78.7915 30.9773 77.4051 31.8409 75.8597 31.8409C73.746 31.8409 72.0869 30.2045 72.0869 27.1818C72.0869 24.1591 73.746 22.5227 75.8597 22.5227C77.4051 22.5227 78.7915 23.3864 79.1324 25H80.5415ZM82.1821 22.6136H85.8412V33H87.2503V22.6136H90.9094V21.3636H82.1821V22.6136ZM93.0841 33H94.4932V27.7955H100.698V33H102.107V21.3636H100.698V26.5455H94.4932V21.3636H93.0841V33ZM104.928 21.3636V33H106.291L112.632 23.8636H112.746V33H114.155V21.3636H112.791L106.428 30.5227H106.314V21.3636H104.928ZM126.861 31.6591H125.657V21.3636H124.316V31.7045H118.316V21.3636H116.975V33H125.247V35.75H126.702L126.861 31.6591Z" fill="white"/>
</svg>
