<svg width="60" height="60" viewBox="0 0 60 60" fill="none" xmlns="http://www.w3.org/2000/svg">
<circle cx="30" cy="30" r="30" fill="#8E24AA"/>
<g clip-path="url(#clip0)">
<path d="M46.7326 32.8398C47.8066 23.7993 46.2166 18.0918 43.3486 15.5103L43.3501 15.5088C38.7211 11.1003 23.0881 10.4478 17.5501 15.7068C15.0631 18.2793 14.1871 22.0548 14.0911 26.7288C13.9951 31.4043 13.8811 40.1628 22.0426 42.5388H22.0501L22.0426 46.1673C22.0426 46.1673 21.9871 47.6373 22.9261 47.9328C24.0001 48.2808 24.4861 47.5983 27.8266 43.6083C33.4126 44.0928 37.7026 42.9828 38.1901 42.8208C39.3181 42.4428 45.7006 41.5983 46.7326 32.8398ZM28.3771 41.0553C28.3771 41.0553 24.8416 45.4638 23.7421 46.6083C23.3821 46.9803 22.9876 46.9458 22.9936 46.2078C22.9936 45.7233 23.0206 40.1838 23.0206 40.1838C16.1011 38.2008 16.5091 30.7428 16.5841 26.8413C16.6591 22.9383 17.3731 19.7418 19.4791 17.5893C24.3376 13.0338 38.0431 14.0523 41.5351 17.3343C45.8041 21.1188 44.2846 31.8108 44.2936 32.1753C43.4161 39.4863 38.2441 39.9498 37.2931 40.2663C36.8866 40.4013 33.1141 41.3718 28.3771 41.0553Z" fill="white"/>
<path d="M30.3325 18.4463C29.755 18.4463 29.755 19.3463 30.3325 19.3538C34.813 19.3883 38.503 22.5113 38.5435 28.2398C38.5435 28.8443 39.4285 28.8368 39.421 28.2323H39.4195C39.3715 22.0598 35.3425 18.4808 30.3325 18.4463Z" fill="white"/>
<path d="M36.2259 27.2896C36.2124 27.8866 37.0959 27.9151 37.1034 27.3106C37.1769 23.9071 35.0784 21.1036 31.1349 20.8081C30.5574 20.7661 30.4974 21.6736 31.0734 21.7156C34.4934 21.9751 36.2949 24.3091 36.2259 27.2896Z" fill="white"/>
<path d="M35.2818 31.1612C34.5408 30.7322 33.7863 30.9992 33.4743 31.4207L32.8218 32.2652C32.4903 32.6942 31.8708 32.6372 31.8708 32.6372C27.3498 31.4417 26.1408 26.7107 26.1408 26.7107C26.1408 26.7107 26.0853 26.0702 26.4993 25.7267L27.3153 25.0517C27.7233 24.7277 27.9813 23.9477 27.5658 23.1812C26.4558 21.1757 25.7103 20.4842 25.3308 19.9532C24.9318 19.4537 24.3318 19.3412 23.7078 19.6787H23.6943C22.3968 20.4377 20.9763 21.8582 21.4308 23.3207C22.2063 24.8627 23.6313 29.7782 28.1733 33.4922C30.3078 35.2487 33.6858 37.0487 35.1198 37.4642L35.1333 37.4852C36.5463 37.9562 37.9203 36.4802 38.6538 35.1437V35.1332C38.9793 34.4867 38.8713 33.8747 38.3958 33.4742C37.5528 32.6522 36.2808 31.7447 35.2818 31.1612Z" fill="white"/>
<path d="M31.753 24.1565C33.1945 24.2405 33.8935 24.9935 33.9685 26.54C33.9955 27.1445 34.873 27.1025 34.846 26.498C34.75 24.479 33.697 23.354 31.801 23.249C31.2235 23.2145 31.1695 24.122 31.753 24.1565Z" fill="white"/>
</g>
<defs>
<clipPath id="clip0">
<rect width="36" height="36" fill="white" transform="translate(12 12)"/>
</clipPath>
</defs>
</svg>
