<svg width="60" height="60" viewBox="0 0 60 60" fill="none" xmlns="http://www.w3.org/2000/svg">
<circle cx="30" cy="30" r="30" fill="#4CB863"/>
<path fill-rule="evenodd" clip-rule="evenodd" d="M41.9384 18.0121C38.7809 14.851 34.5817 13.1093 30.1081 13.1074C20.8899 13.1074 13.3876 20.6095 13.3839 29.8302C13.3827 32.7778 14.1527 35.6551 15.6163 38.1913L13.2437 46.8574L22.1094 44.5317C24.5523 45.8643 27.3025 46.5666 30.1013 46.5674H30.1084C39.3255 46.5674 46.8286 39.0647 46.8321 29.8436C46.834 25.3748 45.096 21.1731 41.9384 18.0121ZM30.1081 43.743H30.1024C27.6082 43.742 25.162 43.0717 23.0275 41.8054L22.5202 41.5041L17.2591 42.8842L18.6633 37.7548L18.3327 37.2289C16.9412 35.0157 16.2065 32.4576 16.2077 29.8312C16.2106 22.1672 22.4464 15.932 30.1137 15.932C33.8265 15.9332 37.3167 17.381 39.941 20.0084C42.5654 22.6359 44.0098 26.1283 44.0086 29.8426C44.0053 37.5072 37.7699 43.743 30.1081 43.743ZM37.7328 33.3323C37.315 33.123 35.2605 32.1124 34.8773 31.9727C34.4946 31.8333 34.2157 31.7639 33.9374 32.182C33.6587 32.6002 32.858 33.5416 32.6141 33.8203C32.3702 34.0992 32.1267 34.1342 31.7087 33.9249C31.2908 33.7158 29.9444 33.2744 28.3481 31.8508C27.106 30.7427 26.2674 29.3743 26.0235 28.9562C25.78 28.5376 26.0214 28.3332 26.2068 28.1033C26.6592 27.5416 27.1122 26.9527 27.2514 26.674C27.3909 26.395 27.3211 26.1509 27.2164 25.9419C27.1122 25.7328 26.2765 23.6759 25.9283 22.839C25.5889 22.0245 25.2446 22.1345 24.988 22.1217C24.7445 22.1095 24.4658 22.1071 24.1871 22.1071C23.9086 22.1071 23.4558 22.2115 23.0726 22.6301C22.6897 23.0485 21.6103 24.0593 21.6103 26.1161C21.6103 28.173 23.1077 30.16 23.3165 30.4389C23.5254 30.7178 26.2633 34.9386 30.455 36.7485C31.452 37.1794 32.2303 37.4363 32.8374 37.6289C33.8385 37.947 34.7492 37.9021 35.4693 37.7945C36.2723 37.6744 37.9415 36.7835 38.29 35.8075C38.6381 34.8313 38.6381 33.9948 38.5335 33.8203C38.4293 33.646 38.1505 33.5416 37.7328 33.3323Z" fill="white"/>
</svg>
